<svg width="1024" height="1024" viewBox="0 0 1024 1024" fill="none" xmlns="http://www.w3.org/2000/svg">
  <g filter="url(#a)">
    <path fill-rule="evenodd" clip-rule="evenodd" d="M924 356.627c0-9.782.004-19.565-.056-29.348-.049-8.241-.144-16.48-.368-24.717-.484-17.953-1.543-36.06-4.736-53.813-3.238-18.008-8.526-34.769-16.859-51.132a172.08 172.08 0 0 0-75.235-75.199c-16.38-8.335-33.159-13.621-51.188-16.858-17.755-3.188-35.867-4.245-53.82-4.73-8.243-.223-16.485-.317-24.73-.368-9.788-.06-19.576-.055-29.364-.055L553.997 100h-85l-111.636.407c-9.807 0-19.614-.005-29.421.055-8.262.051-16.52.145-24.779.368-17.994.485-36.147 1.543-53.944 4.735-18.053 3.236-34.857 8.52-51.259 16.849a172.4 172.4 0 0 0-43.667 31.644 172 172 0 0 0-31.718 43.552c-8.356 16.371-13.654 33.142-16.9 51.16-3.196 17.746-4.255 35.847-4.742 53.792-.222 8.238-.318 16.477-.368 24.717-.06 9.784-.563 21.937-.563 31.72l.003 110.09-.003 85.909.508 112.429c0 9.796-.004 19.592.055 29.388.05 8.252.146 16.502.369 24.751.486 17.976 1.547 36.109 4.746 53.886 3.245 18.032 8.542 34.817 16.891 51.201a172.2 172.2 0 0 0 31.722 43.619 172.4 172.4 0 0 0 43.659 31.684c16.412 8.346 33.224 13.639 51.288 16.88 17.789 3.193 35.936 4.252 53.923 4.737 8.259.223 16.518.318 24.78.368 9.807.06 19.613.056 29.42.056l112.645.003h85.211l112.427-.004c9.788 0 19.576.005 29.364-.055 8.245-.05 16.487-.145 24.73-.368 17.96-.486 36.078-1.546 53.841-4.741 18.018-3.241 34.789-8.532 51.16-16.873a172.2 172.2 0 0 0 75.239-75.299c8.338-16.392 13.626-33.185 16.866-51.229 3.19-17.77 4.248-35.896 4.733-53.865.223-8.25.318-16.5.367-24.751.061-9.796.056-19.592.056-29.388l-.006-112.429v-85.999z" fill="#fff"/>
  </g>
  <mask id="b" style="mask-type:luminance" maskUnits="userSpaceOnUse" x="100" y="100" width="824" height="824">
    <path fill-rule="evenodd" clip-rule="evenodd" d="M924 356.627c0-9.782.004-19.565-.056-29.348-.049-8.241-.144-16.48-.368-24.717-.484-17.953-1.543-36.06-4.736-53.813-3.238-18.008-8.526-34.769-16.859-51.132a172.08 172.08 0 0 0-75.235-75.199c-16.38-8.335-33.159-13.621-51.188-16.858-17.755-3.188-35.867-4.245-53.82-4.73-8.243-.223-16.485-.317-24.73-.368-9.788-.06-19.576-.055-29.364-.055L553.997 100h-85l-111.636.407c-9.807 0-19.614-.005-29.421.055-8.262.051-16.52.145-24.779.368-17.994.485-36.147 1.543-53.944 4.735-18.053 3.236-34.857 8.52-51.259 16.849a172.4 172.4 0 0 0-43.667 31.644 172 172 0 0 0-31.718 43.552c-8.356 16.371-13.654 33.142-16.9 51.16-3.196 17.746-4.255 35.847-4.742 53.792-.222 8.238-.318 16.477-.368 24.717-.06 9.784-.563 21.937-.563 31.72l.003 110.09-.003 85.909.508 112.429c0 9.796-.004 19.592.055 29.388.05 8.252.146 16.502.369 24.751.486 17.976 1.547 36.109 4.746 53.886 3.245 18.032 8.542 34.817 16.891 51.201a172.2 172.2 0 0 0 31.722 43.619 172.4 172.4 0 0 0 43.659 31.684c16.412 8.346 33.224 13.639 51.288 16.88 17.789 3.193 35.936 4.252 53.923 4.737 8.259.223 16.518.318 24.78.368 9.807.06 19.613.056 29.42.056l112.645.003h85.211l112.427-.004c9.788 0 19.576.005 29.364-.055 8.245-.05 16.487-.145 24.73-.368 17.96-.486 36.078-1.546 53.841-4.741 18.018-3.241 34.789-8.532 51.16-16.873a172.2 172.2 0 0 0 75.239-75.299c8.338-16.392 13.626-33.185 16.866-51.229 3.19-17.77 4.248-35.896 4.733-53.865.223-8.25.318-16.5.367-24.751.061-9.796.056-19.592.056-29.388l-.006-112.429v-85.999z" fill="#fff"/>
  </mask>
  <g mask="url(#b)"/>
  <g clip-path="url(#c)">
    <g filter="url(#d)">
      <path d="M202 362.972 763.132 212.54l33.57 125.363L235.57 488.336z" fill="#7DDCFF"/>
    </g>
    <g filter="url(#e)">
      <path d="m235.723 504.175 580.14 30.418-6.795 129.613-580.14-30.418z" fill="#4FAFD1"/>
    </g>
    <g filter="url(#f)">
      <path d="M231.934 688.15h580.923v129.793H231.934z" fill="#7DDCFF"/>
    </g>
  </g>
  <defs>
    <filter id="a" x="90" y="100" width="844" height="844" filterUnits="userSpaceOnUse" color-interpolation-filters="sRGB">
      <feFlood flood-opacity="0" result="BackgroundImageFix"/>
      <feColorMatrix in="SourceAlpha" values="0 0 0 0 0 0 0 0 0 0 0 0 0 0 0 0 0 0 127 0" result="hardAlpha"/>
      <feOffset dy="10"/>
      <feGaussianBlur stdDeviation="5"/>
      <feColorMatrix values="0 0 0 0 0 0 0 0 0 0 0 0 0 0 0 0 0 0 0.3 0"/>
      <feBlend in2="BackgroundImageFix" result="effect1_dropShadow_104_48"/>
      <feBlend in="SourceGraphic" in2="effect1_dropShadow_104_48" result="shape"/>
    </filter>
    <filter id="d" x="197" y="212.54" width="604.702" height="285.796" filterUnits="userSpaceOnUse" color-interpolation-filters="sRGB">
      <feFlood flood-opacity="0" result="BackgroundImageFix"/>
      <feColorMatrix in="SourceAlpha" values="0 0 0 0 0 0 0 0 0 0 0 0 0 0 0 0 0 0 127 0" result="hardAlpha"/>
      <feOffset dy="5"/>
      <feGaussianBlur stdDeviation="2.5"/>
      <feComposite in2="hardAlpha" operator="out"/>
      <feColorMatrix values="0 0 0 0 0 0 0 0 0 0 0 0 0 0 0 0 0 0 0.25 0"/>
      <feBlend in2="BackgroundImageFix" result="effect1_dropShadow_104_48"/>
      <feBlend in="SourceGraphic" in2="effect1_dropShadow_104_48" result="shape"/>
    </filter>
    <filter id="e" x="223.928" y="504.175" width="596.935" height="170.031" filterUnits="userSpaceOnUse" color-interpolation-filters="sRGB">
      <feFlood flood-opacity="0" result="BackgroundImageFix"/>
      <feColorMatrix in="SourceAlpha" values="0 0 0 0 0 0 0 0 0 0 0 0 0 0 0 0 0 0 127 0" result="hardAlpha"/>
      <feOffset dy="5"/>
      <feGaussianBlur stdDeviation="2.5"/>
      <feComposite in2="hardAlpha" operator="out"/>
      <feColorMatrix values="0 0 0 0 0 0 0 0 0 0 0 0 0 0 0 0 0 0 0.25 0"/>
      <feBlend in2="BackgroundImageFix" result="effect1_dropShadow_104_48"/>
      <feBlend in="SourceGraphic" in2="effect1_dropShadow_104_48" result="shape"/>
    </filter>
    <filter id="f" x="226.934" y="688.15" width="590.923" height="139.794" filterUnits="userSpaceOnUse" color-interpolation-filters="sRGB">
      <feFlood flood-opacity="0" result="BackgroundImageFix"/>
      <feColorMatrix in="SourceAlpha" values="0 0 0 0 0 0 0 0 0 0 0 0 0 0 0 0 0 0 127 0" result="hardAlpha"/>
      <feOffset dy="5"/>
      <feGaussianBlur stdDeviation="2.5"/>
      <feComposite in2="hardAlpha" operator="out"/>
      <feColorMatrix values="0 0 0 0 0 0 0 0 0 0 0 0 0 0 0 0 0 0 0.25 0"/>
      <feBlend in2="BackgroundImageFix" result="effect1_dropShadow_104_48"/>
      <feBlend in="SourceGraphic" in2="effect1_dropShadow_104_48" result="shape"/>
    </filter>
    <clipPath id="c">
      <path fill="#fff" d="M202 171h621v682H202z"/>
    </clipPath>
  </defs>
</svg>
