<svg width="211" height="87" viewBox="0 0 211 87" fill="none" xmlns="http://www.w3.org/2000/svg">
<path d="M94.5446 39H84.486C81.0507 39 78.4948 38.3129 76.8184 36.9388C75.1695 35.5647 74.345 33.4486 74.345 30.5904V17.7698C74.345 14.9117 75.1695 12.7955 76.8184 11.4214C78.4948 10.0198 81.0507 9.31898 84.486 9.31898H94.5446C95.0667 9.31898 95.4377 9.44265 95.6576 9.68999C95.9049 9.90985 96.0286 10.2809 96.0286 10.803V15.7911C96.0286 16.3133 95.9049 16.698 95.6576 16.9454C95.4377 17.1652 95.0667 17.2751 94.5446 17.2751H86.2586C85.4067 17.2751 84.7746 17.4538 84.3623 17.8111C83.9501 18.1408 83.744 18.6493 83.744 19.3363V29.1476C83.744 29.8346 83.9501 30.343 84.3623 30.6728C84.7746 30.9751 85.4067 31.1263 86.2586 31.1263H94.5446C95.0667 31.1263 95.4377 31.25 95.6576 31.4973C95.9049 31.7172 96.0286 32.0882 96.0286 32.6103V37.5159C96.0286 38.0381 95.9049 38.4229 95.6576 38.6702C95.4377 38.8901 95.0667 39 94.5446 39ZM108.31 39H102.168C101.646 39 101.261 38.8901 101.014 38.6702C100.794 38.4229 100.684 38.0381 100.684 37.5159V10.803C100.684 10.2809 100.794 9.90985 101.014 9.68999C101.261 9.44265 101.646 9.31898 102.168 9.31898H108.805C109.245 9.31898 109.602 9.41517 109.877 9.60754C110.179 9.79992 110.454 10.116 110.701 10.5557L114.411 17.2751C114.549 17.5225 114.659 17.7011 114.741 17.8111C114.851 17.921 114.989 17.9759 115.153 17.9759H115.524C115.689 17.9759 115.813 17.921 115.896 17.8111C116.005 17.7011 116.129 17.5225 116.267 17.2751L119.935 10.5557C120.183 10.116 120.444 9.79992 120.719 9.60754C121.021 9.41517 121.392 9.31898 121.832 9.31898H128.51C129.032 9.31898 129.403 9.44265 129.623 9.68999C129.87 9.90985 129.994 10.2809 129.994 10.803V37.5159C129.994 38.0381 129.87 38.4229 129.623 38.6702C129.403 38.8901 129.032 39 128.51 39H122.162C121.639 39 121.255 38.8901 121.007 38.6702C120.787 38.4229 120.677 38.0381 120.677 37.5159V23.0052L118.245 27.4986C117.998 27.9658 117.696 28.3093 117.338 28.5292C117.009 28.7216 116.583 28.8178 116.06 28.8178H114.411C113.889 28.8178 113.45 28.7216 113.092 28.5292C112.763 28.3093 112.474 27.9658 112.227 27.4986L109.794 23.0052V37.5159C109.794 38.0381 109.671 38.4229 109.423 38.6702C109.204 38.8901 108.833 39 108.31 39ZM151.044 39H137.152C136.63 39 136.245 38.8901 135.998 38.6702C135.778 38.4229 135.668 38.0381 135.668 37.5159V10.803C135.668 10.2809 135.778 9.90985 135.998 9.68999C136.245 9.44265 136.63 9.31898 137.152 9.31898H151.044C154.479 9.31898 157.022 10.006 158.671 11.3802C160.347 12.7543 161.185 14.8704 161.185 17.7286V30.5904C161.185 33.4486 160.347 35.5647 158.671 36.9388C157.022 38.3129 154.479 39 151.044 39ZM145.025 17.1927V31.2087H149.931C150.591 31.2087 151.072 31.0438 151.374 30.714C151.704 30.3843 151.869 29.8758 151.869 29.1888V19.1714C151.869 18.4844 151.704 17.9897 151.374 17.6874C151.072 17.3576 150.591 17.1927 149.931 17.1927H145.025Z" fill="#1E6B87"/>
<path d="M88.5671 76.476H75.5405C75.0183 76.476 74.6335 76.3661 74.3862 76.1463C74.1663 75.8989 74.0564 75.5142 74.0564 74.992V70.1688C74.0564 69.6467 74.1663 69.2756 74.3862 69.0558C74.6335 68.8084 75.0183 68.6848 75.5405 68.6848H86.6296C86.9869 68.6848 87.248 68.5748 87.4129 68.355C87.6053 68.1076 87.7014 67.8191 87.7014 67.4893C87.7014 67.0221 87.6053 66.6786 87.4129 66.4587C87.248 66.2388 86.9869 66.1152 86.6296 66.0877L80.4461 65.222C78.5223 64.9472 76.9696 64.3151 75.7878 63.3257C74.6335 62.3363 74.0564 60.6874 74.0564 58.3789V54.0504C74.0564 51.7144 74.8122 49.928 76.3237 48.6913C77.8352 47.4271 79.9239 46.795 82.5897 46.795H94.1323C94.6545 46.795 95.0255 46.9187 95.2454 47.166C95.4927 47.3859 95.6164 47.7569 95.6164 48.2791V53.1847C95.6164 53.7069 95.4927 54.0916 95.2454 54.339C95.0255 54.5588 94.6545 54.6687 94.1323 54.6687H84.5272C84.1699 54.6687 83.8951 54.7924 83.7027 55.0398C83.5104 55.2596 83.4142 55.5482 83.4142 55.9054C83.4142 56.2627 83.5104 56.565 83.7027 56.8124C83.8951 57.0597 84.1699 57.1971 84.5272 57.2246L90.6695 58.0491C92.5933 58.3239 94.1461 58.956 95.3278 59.9454C96.5096 60.9347 97.1004 62.5837 97.1004 64.8922V69.2207C97.1004 71.5567 96.3309 73.3568 94.7919 74.621C93.2804 75.8577 91.2054 76.476 88.5671 76.476ZM115.223 76.476H108.545C108.023 76.476 107.638 76.3661 107.391 76.1463C107.171 75.8989 107.061 75.5142 107.061 74.992V54.7512H101.001C100.479 54.7512 100.094 54.6413 99.847 54.4214C99.6271 54.1741 99.5172 53.7893 99.5172 53.2671V48.2791C99.5172 47.7569 99.6271 47.3859 99.847 47.166C100.094 46.9187 100.479 46.795 101.001 46.795H122.767C123.289 46.795 123.66 46.9187 123.88 47.166C124.128 47.3859 124.251 47.7569 124.251 48.2791V53.2671C124.251 53.7893 124.128 54.1741 123.88 54.4214C123.66 54.6413 123.289 54.7512 122.767 54.7512H116.707V74.992C116.707 75.5142 116.584 75.8989 116.336 76.1463C116.117 76.3661 115.746 76.476 115.223 76.476ZM137.369 55.452L135.432 61.718H141.904L139.966 55.452C139.856 55.2046 139.733 55.026 139.595 54.9161C139.485 54.8062 139.348 54.7512 139.183 54.7512H138.152C137.988 54.7512 137.836 54.8062 137.699 54.9161C137.589 55.026 137.479 55.2046 137.369 55.452ZM135.019 74.992C135.019 75.5142 134.896 75.8989 134.648 76.1463C134.429 76.3661 134.058 76.476 133.535 76.476H127.475C126.953 76.476 126.569 76.3661 126.321 76.1463C126.101 75.8989 125.991 75.5142 125.991 74.992V64.109C125.991 63.2845 126.115 62.3363 126.362 61.2645C126.637 60.1927 127.05 58.9423 127.599 57.5132L131.186 48.1554C131.351 47.6882 131.598 47.3447 131.928 47.1248C132.285 46.905 132.738 46.795 133.288 46.795H144.377C144.899 46.795 145.325 46.905 145.655 47.1248C146.012 47.3447 146.273 47.6882 146.438 48.1554L150.025 57.5132C150.574 58.9423 150.973 60.1927 151.22 61.2645C151.495 62.3363 151.633 63.2845 151.633 64.109V74.992C151.633 75.5142 151.509 75.8989 151.262 76.1463C151.042 76.3661 150.671 76.476 150.148 76.476H143.924C143.374 76.476 142.962 76.3661 142.687 76.1463C142.44 75.8989 142.316 75.5142 142.316 74.992V69.2207H135.019V74.992ZM176.468 76.476H166.41C162.975 76.476 160.419 75.789 158.742 74.4149C157.093 73.0407 156.269 70.9246 156.269 68.0664V55.2459C156.269 52.3877 157.093 50.2716 158.742 48.8974C160.419 47.4958 162.975 46.795 166.41 46.795H176.468C176.991 46.795 177.362 46.9187 177.582 47.166C177.829 47.3859 177.953 47.7569 177.953 48.2791V53.2671C177.953 53.7893 177.829 54.1741 177.582 54.4214C177.362 54.6413 176.991 54.7512 176.468 54.7512H168.183C167.331 54.7512 166.698 54.9298 166.286 55.2871C165.874 55.6169 165.668 56.1253 165.668 56.8124V66.6236C165.668 67.3107 165.874 67.8191 166.286 68.1489C166.698 68.4512 167.331 68.6023 168.183 68.6023H176.468C176.991 68.6023 177.362 68.726 177.582 68.9733C177.829 69.1932 177.953 69.5642 177.953 70.0864V74.992C177.953 75.5142 177.829 75.8989 177.582 76.1463C177.362 76.3661 176.991 76.476 176.468 76.476ZM190.482 76.476H184.092C183.57 76.476 183.185 76.3661 182.938 76.1463C182.718 75.8989 182.608 75.5142 182.608 74.992V48.2791C182.608 47.7569 182.718 47.3859 182.938 47.166C183.185 46.9187 183.57 46.795 184.092 46.795H190.482C191.004 46.795 191.375 46.9187 191.595 47.166C191.842 47.3859 191.966 47.7569 191.966 48.2791V57.7605H193.615L197.861 48.1554C198.053 47.6607 198.314 47.3172 198.644 47.1248C198.974 46.905 199.4 46.795 199.922 46.795H206.27C206.737 46.795 207.054 46.9187 207.218 47.166C207.383 47.3859 207.37 47.7157 207.177 48.1554L202.972 57.7605C204.511 57.843 205.734 58.3926 206.641 59.4095C207.576 60.3988 208.043 61.718 208.043 63.3669V74.992C208.043 75.5142 207.919 75.8989 207.672 76.1463C207.452 76.3661 207.081 76.476 206.559 76.476H200.21C199.688 76.476 199.303 76.3661 199.056 76.1463C198.836 75.8989 198.726 75.5142 198.726 74.992V66.9534C198.726 66.5137 198.616 66.1701 198.397 65.9228C198.177 65.6755 197.847 65.5518 197.407 65.5518H191.966V74.992C191.966 75.5142 191.842 75.8989 191.595 76.1463C191.375 76.3661 191.004 76.476 190.482 76.476Z" fill="#4FAFD1"/>
<path d="M0 26.45L62.3483 9.74378L66.0788 23.6662L3.7305 40.3724L0 26.45Z" fill="#7DDCFF"/>
<path d="M3.74719 42.131L68.2064 45.5092L67.4521 59.903L2.99284 56.5249L3.74719 42.131Z" fill="#4FAFD1"/>
<path d="M3.32574 62.5624H67.8734V76.976H3.32574V62.5624Z" fill="#7DDCFF"/>
</svg>
